<svg width="191" height="132" viewBox="0 0 191 132" fill="none" xmlns="http://www.w3.org/2000/svg">
<mask id="mask0_288_199" style="mask-type:alpha" maskUnits="userSpaceOnUse" x="0" y="0" width="191" height="132">
<rect y="60.4714" width="3.00787" height="11.0576" rx="1.50394" fill="#393939"/>
<rect y="60.4714" width="3.00787" height="11.0576" rx="1.50394" fill="#393939"/>
<rect y="60.4714" width="3.00787" height="11.0576" rx="1.50394" fill="#393939"/>
<rect x="7.51929" y="63.2356" width="3.00787" height="5.5288" rx="1.50394" fill="#393939"/>
<rect x="7.51929" y="63.2356" width="3.00787" height="5.5288" rx="1.50394" fill="#393939"/>
<rect x="7.51929" y="63.2356" width="3.00787" height="5.5288" rx="1.50394" fill="#393939"/>
<rect x="15.0403" y="50.1047" width="3.00787" height="31.7906" rx="1.50394" fill="#393939"/>
<rect x="15.0403" y="50.1047" width="3.00787" height="31.7906" rx="1.50394" fill="#393939"/>
<rect x="15.0403" y="50.1047" width="3.00787" height="31.7906" rx="1.50394" fill="#393939"/>
<rect x="22.5591" y="59.0889" width="3.00787" height="13.822" rx="1.50394" fill="#393939"/>
<rect x="22.5591" y="59.0889" width="3.00787" height="13.822" rx="1.50394" fill="#393939"/>
<rect x="22.5591" y="59.0889" width="3.00787" height="13.822" rx="1.50394" fill="#393939"/>
<rect x="30.0784" y="60.4714" width="3.00787" height="11.0576" rx="1.50394" fill="#393939"/>
<rect x="30.0784" y="60.4714" width="3.00787" height="11.0576" rx="1.50394" fill="#393939"/>
<rect x="30.0784" y="60.4714" width="3.00787" height="11.0576" rx="1.50394" fill="#393939"/>
<rect x="37.5986" y="62.199" width="3.00787" height="7.60209" rx="1.50394" fill="#393939"/>
<rect x="37.5986" y="62.199" width="3.00787" height="7.60209" rx="1.50394" fill="#393939"/>
<rect x="37.5986" y="62.199" width="3.00787" height="7.60209" rx="1.50394" fill="#393939"/>
<rect x="45.1187" y="50.1047" width="3.00787" height="31.7906" rx="1.50394" fill="#393939"/>
<rect x="45.1187" y="50.1047" width="3.00787" height="31.7906" rx="1.50394" fill="#393939"/>
<rect x="45.1187" y="50.1047" width="3.00787" height="31.7906" rx="1.50394" fill="#393939"/>
<rect x="52.6372" y="34.9004" width="3.00787" height="62.199" rx="1.50394" fill="#393939"/>
<rect x="52.6372" y="34.9004" width="3.00787" height="62.199" rx="1.50394" fill="#393939"/>
<rect x="52.6372" y="34.9004" width="3.00787" height="62.199" rx="1.50394" fill="#393939"/>
<rect x="60.1575" width="3.00787" height="132" rx="1.50394" fill="#393939"/>
<rect x="60.1575" width="3.00787" height="132" rx="1.50394" fill="#393939"/>
<rect x="60.1575" width="3.00787" height="132" rx="1.50394" fill="#393939"/>
<rect x="67.6777" y="39.738" width="3.00787" height="52.5236" rx="1.50394" fill="#393939"/>
<rect x="67.6777" y="39.738" width="3.00787" height="52.5236" rx="1.50394" fill="#393939"/>
<rect x="67.6777" y="39.738" width="3.00787" height="52.5236" rx="1.50394" fill="#393939"/>
<rect x="75.1965" y="51.4868" width="3.00787" height="29.0262" rx="1.50394" fill="#393939"/>
<rect x="75.1965" y="51.4868" width="3.00787" height="29.0262" rx="1.50394" fill="#393939"/>
<rect x="75.1965" y="51.4868" width="3.00787" height="29.0262" rx="1.50394" fill="#393939"/>
<rect x="82.7166" y="39.738" width="3.00787" height="52.5236" rx="1.50394" fill="#393939"/>
<rect x="82.7166" y="39.738" width="3.00787" height="52.5236" rx="1.50394" fill="#393939"/>
<rect x="82.7166" y="39.738" width="3.00787" height="52.5236" rx="1.50394" fill="#393939"/>
<rect x="90.2368" y="56.6702" width="3.00787" height="18.6597" rx="1.50394" fill="#393939"/>
<rect x="90.2368" y="56.6702" width="3.00787" height="18.6597" rx="1.50394" fill="#393939"/>
<rect x="90.2368" y="56.6702" width="3.00787" height="18.6597" rx="1.50394" fill="#393939"/>
<rect x="97.7556" y="60.4714" width="3.00787" height="11.0576" rx="1.50394" fill="#393939"/>
<rect x="97.7556" y="60.4714" width="3.00787" height="11.0576" rx="1.50394" fill="#393939"/>
<rect x="97.7556" y="60.4714" width="3.00787" height="11.0576" rx="1.50394" fill="#393939"/>
<rect x="105.276" y="56.6702" width="3.00787" height="18.6597" rx="1.50394" fill="#393939"/>
<rect x="105.276" y="56.6702" width="3.00787" height="18.6597" rx="1.50394" fill="#393939"/>
<rect x="105.276" y="56.6702" width="3.00787" height="18.6597" rx="1.50394" fill="#393939"/>
<rect x="112.796" y="41.1204" width="3.00787" height="49.7592" rx="1.50394" fill="#393939"/>
<rect x="112.796" y="41.1204" width="3.00787" height="49.7592" rx="1.50394" fill="#393939"/>
<rect x="112.796" y="41.1204" width="3.00787" height="49.7592" rx="1.50394" fill="#393939"/>
<rect x="120.315" y="21.7698" width="3.00787" height="88.4607" rx="1.50394" fill="#393939"/>
<rect x="120.315" y="21.7698" width="3.00787" height="88.4607" rx="1.50394" fill="#393939"/>
<rect x="120.315" y="21.7698" width="3.00787" height="88.4607" rx="1.50394" fill="#393939"/>
<rect x="127.835" y="47.3401" width="3.00787" height="37.3194" rx="1.50394" fill="#393939"/>
<rect x="127.835" y="47.3401" width="3.00787" height="37.3194" rx="1.50394" fill="#393939"/>
<rect x="127.835" y="47.3401" width="3.00787" height="37.3194" rx="1.50394" fill="#393939"/>
<rect x="135.354" y="56.6702" width="3.00787" height="18.6597" rx="1.50394" fill="#393939"/>
<rect x="135.354" y="56.6702" width="3.00787" height="18.6597" rx="1.50394" fill="#393939"/>
<rect x="135.354" y="56.6702" width="3.00787" height="18.6597" rx="1.50394" fill="#393939"/>
<rect x="142.874" y="59.7803" width="3.00787" height="12.4398" rx="1.50394" fill="#393939"/>
<rect x="142.874" y="59.7803" width="3.00787" height="12.4398" rx="1.50394" fill="#393939"/>
<rect x="142.874" y="59.7803" width="3.00787" height="12.4398" rx="1.50394" fill="#393939"/>
<rect x="150.395" y="41.1204" width="3.00787" height="49.7592" rx="1.50394" fill="#393939"/>
<rect x="150.395" y="41.1204" width="3.00787" height="49.7592" rx="1.50394" fill="#393939"/>
<rect x="150.395" y="41.1204" width="3.00787" height="49.7592" rx="1.50394" fill="#393939"/>
<rect x="157.913" y="53.9055" width="3.00787" height="24.1885" rx="1.50394" fill="#393939"/>
<rect x="157.913" y="53.9055" width="3.00787" height="24.1885" rx="1.50394" fill="#393939"/>
<rect x="157.913" y="53.9055" width="3.00787" height="24.1885" rx="1.50394" fill="#393939"/>
<rect x="165.433" y="60.4714" width="3.00787" height="11.0576" rx="1.50394" fill="#393939"/>
<rect x="165.433" y="60.4714" width="3.00787" height="11.0576" rx="1.50394" fill="#393939"/>
<rect x="165.433" y="60.4714" width="3.00787" height="11.0576" rx="1.50394" fill="#393939"/>
<rect x="172.953" y="56.6702" width="3.00787" height="18.6597" rx="1.50394" fill="#393939"/>
<rect x="172.953" y="56.6702" width="3.00787" height="18.6597" rx="1.50394" fill="#393939"/>
<rect x="172.953" y="56.6702" width="3.00787" height="18.6597" rx="1.50394" fill="#393939"/>
<rect x="180.472" y="62.8901" width="3.00787" height="6.2199" rx="1.50394" fill="#393939"/>
<rect x="180.472" y="62.8901" width="3.00787" height="6.2199" rx="1.50394" fill="#393939"/>
<rect x="180.472" y="62.8901" width="3.00787" height="6.2199" rx="1.50394" fill="#393939"/>
<rect x="187.992" y="56.6702" width="3.00787" height="18.6597" rx="1.50394" fill="#393939"/>
<rect x="187.992" y="56.6702" width="3.00787" height="18.6597" rx="1.50394" fill="#393939"/>
<rect x="187.992" y="56.6702" width="3.00787" height="18.6597" rx="1.50394" fill="#393939"/>
</mask>
<g mask="url(#mask0_288_199)">
<rect x="-0.979736" width="192.038" height="132" fill="#A27AF3"/>
</g>
</svg>
