<svg width="50" height="59" viewBox="0 0 50 59" fill="none" xmlns="http://www.w3.org/2000/svg">
<path d="M1.5 36.063C1.5 28.6934 7.4742 22.7192 14.8437 22.7192C22.2133 22.7192 28.1875 28.6934 28.1875 36.063V55.0948C28.1875 56.1373 27.3424 56.9824 26.2999 56.9824H3.38756C2.34509 56.9824 1.5 56.1373 1.5 55.0948V36.063Z" fill="url(#paint0_linear)" stroke="black" stroke-width="3"/>
<path d="M25.0623 12.1447C25.0623 17.7078 20.411 22.2895 14.5832 22.2895C8.75537 22.2895 4.104 17.7078 4.104 12.1447C4.104 6.58171 8.75537 2 14.5832 2C20.411 2 25.0623 6.58171 25.0623 12.1447Z" fill="url(#paint1_linear)" fill-opacity="0.5" stroke="black" stroke-width="3"/>
<path d="M28.25 36.501C28.25 33.4634 30.7124 31.001 33.75 31.001H42.6667C45.7042 31.001 48.1667 33.4634 48.1667 36.501V54.4834C48.1667 55.8642 47.0474 56.9834 45.6667 56.9834H28.25V36.501Z" fill="url(#paint2_linear)" stroke="black" stroke-width="3"/>
<path d="M45.0415 23.7729C45.0415 27.4658 41.9185 30.5536 37.9478 30.5536C33.977 30.5536 30.854 27.4658 30.854 23.7729C30.854 20.08 33.977 16.9922 37.9478 16.9922C41.9185 16.9922 45.0415 20.08 45.0415 23.7729Z" fill="url(#paint3_linear)" stroke="black" stroke-width="3"/>
<defs>
<linearGradient id="paint0_linear" x1="29.6782" y1="39.8467" x2="-0.00934123" y2="39.8467" gradientUnits="userSpaceOnUse">
<stop stop-color="#E37A74"/>
<stop offset="0.322917" stop-color="#EB9E78"/>
<stop offset="0.651042" stop-color="#F3C795"/>
<stop offset="1" stop-color="#F9BD49"/>
</linearGradient>
<linearGradient id="paint1_linear" x1="26.5548" y1="12.1421" x2="2.59647" y2="12.1421" gradientUnits="userSpaceOnUse">
<stop stop-color="#CA7473"/>
<stop offset="0.322917" stop-color="#EB9E78"/>
<stop offset="0.651042" stop-color="#F3C795"/>
<stop offset="1" stop-color="#F9BD49"/>
</linearGradient>
<linearGradient id="paint2_linear" x1="49.6595" y1="43.989" x2="26.7428" y2="43.989" gradientUnits="userSpaceOnUse">
<stop stop-color="#E37A74"/>
<stop offset="0.322917" stop-color="#EB9E78"/>
<stop offset="0.651042" stop-color="#F3C795"/>
<stop offset="1" stop-color="#F9BD49"/>
</linearGradient>
<linearGradient id="paint3_linear" x1="46.5361" y1="23.771" x2="29.3486" y2="23.771" gradientUnits="userSpaceOnUse">
<stop stop-color="#E37A74"/>
<stop offset="0.322917" stop-color="#EB9E78"/>
<stop offset="0.651042" stop-color="#F3C795"/>
<stop offset="1" stop-color="#F9BD49"/>
</linearGradient>
</defs>
</svg>
