<svg width="512" height="512" xmlns="http://www.w3.org/2000/svg">

 <g>
  <title>background</title>
  <rect fill="none" id="canvas_background" height="514" width="514" y="-1" x="-1"/>
 </g>
 <g>
  <title>Layer 1</title>
  <g id="svg_1">
   <path fill="#a27af3" id="svg_2" d="m256,0c-141.391,0 -256,114.609 -256,256c0,141.391 114.609,256 256,256c141.391,0 256,-114.609 256,-256c0,-141.391 -114.609,-256 -256,-256zm0,472c-119.297,0 -216,-96.703 -216,-216s96.703,-216 216,-216s216,96.703 216,216s-96.703,216 -216,216z"/>
   <path fill="#a27af3" id="svg_3" d="m353.661,236.879l-154.174,-89.594c-16.844,-9.969 -32.987,-1.938 -32.987,17.844l0,179.766c0,19.75 16.143,27.797 32.987,17.812l152.956,-89.578c16.905,-9.969 18.109,-26.281 1.218,-36.25z"/>
  </g>
  <g id="svg_4"/>
  <g id="svg_5"/>
  <g id="svg_6"/>
  <g id="svg_7"/>
  <g id="svg_8"/>
  <g id="svg_9"/>
  <g id="svg_10"/>
  <g id="svg_11"/>
  <g id="svg_12"/>
  <g id="svg_13"/>
  <g id="svg_14"/>
  <g id="svg_15"/>
  <g id="svg_16"/>
  <g id="svg_17"/>
  <g id="svg_18"/>
 </g>
</svg>