<?xml version="1.0" encoding="iso-8859-1"?>
<!-- Generator: Adobe Illustrator 19.1.0, SVG Export Plug-In . SVG Version: 6.00 Build 0)  -->
<svg version="1.1" id="Capa_1" xmlns="http://www.w3.org/2000/svg" xmlns:xlink="http://www.w3.org/1999/xlink" x="0px" y="0px"
	 viewBox="0 0 67 67" style="enable-background:new 0 0 67 67;" xml:space="preserve">
<g>
	<g id="group-50svg">
		<path id="path-1_45_" style="fill:#E56A77;" d="M67,57.5c0,4.418-3.582,8-8,8H15c-4.418,0-8-3.582-8-8v-44c0-4.418,3.582-8,8-8h44
			c4.418,0,8,3.582,8,8V57.5z"/>
		<path id="path-2_41_" d="M53.5,64.5h-44C4.262,64.5,0,60.238,0,55V11c0-5.238,4.262-9.5,9.5-9.5h44c5.238,0,9.5,4.262,9.5,9.5v44
			C63,60.238,58.738,64.5,53.5,64.5z M9.5,4.5C5.916,4.5,3,7.416,3,11v44c0,3.584,2.916,6.5,6.5,6.5h44c3.584,0,6.5-2.916,6.5-6.5
			V11c0-3.584-2.916-6.5-6.5-6.5H9.5z"/>
		<path id="path-3_23_" style="fill:#53ECF4;" d="M47.917,33.739l-15.48-8.734C31.104,24.231,29,25.193,29,26.735v13.65
			c0,1.526,2.073,2.49,3.406,1.747L47.917,33.739z"/>
		<path id="path-4_18_" d="M26.66,41.889L26.66,41.889C24.642,41.888,23,40.316,23,38.385V24.734c0-1.931,1.642-3.503,3.659-3.503
			c0.629,0,1.244,0.165,1.78,0.476l15.224,8.73c0.471,0.27,0.759,0.772,0.754,1.315c-0.005,0.542-0.302,1.039-0.777,1.301
			l-15.261,8.394C27.863,41.734,27.267,41.889,26.66,41.889z M26.659,24.231c-0.305,0-0.659,0.22-0.659,0.503v13.651
			c0,0.283,0.354,0.504,0.66,0.504l0,0c0.099,0,0.188-0.023,0.267-0.067l12.927-7.111l-12.913-7.405
			C26.854,24.256,26.762,24.231,26.659,24.231z"/>
	</g>
</g>
<g>
</g>
<g>
</g>
<g>
</g>
<g>
</g>
<g>
</g>
<g>
</g>
<g>
</g>
<g>
</g>
<g>
</g>
<g>
</g>
<g>
</g>
<g>
</g>
<g>
</g>
<g>
</g>
<g>
</g>
</svg>
